<svg width="15" height="18" viewBox="0 0 15 18" fill="none" xmlns="http://www.w3.org/2000/svg">
<path fill-rule="evenodd" clip-rule="evenodd" d="M7.5 0.0175781C11.6355 0.0175781 15 3.40758 15 7.57485C15 12.6976 9.13091 17.7449 7.5 17.7449C5.86909 17.7449 0 12.6976 0 7.57485C0 3.40758 3.36455 0.0175781 7.5 0.0175781ZM7.5 1.38121C4.11636 1.38121 1.36364 4.16031 1.36364 7.57485C1.36364 11.9194 6.47636 16.1521 7.5 16.3776C8.52364 16.1512 13.6364 11.9185 13.6364 7.57485C13.6364 4.16031 10.8836 1.38121 7.5 1.38121ZM7.50091 4.56303C9.13 4.56303 10.4555 5.88849 10.4555 7.51849C10.4555 9.14758 9.13 10.4721 7.50091 10.4721C5.87182 10.4721 4.54636 9.14758 4.54636 7.51849C4.54636 5.88849 5.87182 4.56303 7.50091 4.56303ZM7.50091 5.92667C6.62364 5.92667 5.91 6.64031 5.91 7.51849C5.91 8.39576 6.62364 9.10849 7.50091 9.10849C8.37818 9.10849 9.09182 8.39576 9.09182 7.51849C9.09182 6.64031 8.37818 5.92667 7.50091 5.92667Z" fill="black"/>
</svg>
